<svg xmlns="http://www.w3.org/2000/svg" xmlns:xlink="http://www.w3.org/1999/xlink" width="75" height="75" viewBox="0 0 75 75">
  <defs>
    <clipPath id="clip-codepen">
      <rect width="75" height="75"/>
    </clipPath>
  </defs>
  <g id="codepen" clip-path="url(#clip-codepen)">
    <path id="twitter" d="M66.964,32H8.036A8.038,8.038,0,0,0,0,40.036V98.964A8.038,8.038,0,0,0,8.036,107H66.964A8.038,8.038,0,0,0,75,98.964V40.036A8.038,8.038,0,0,0,66.964,32Z" transform="translate(0 -32)" fill="#131417"/>
    <g id="codepen-seeklogo.com" transform="translate(15 15)">
      <path id="Path_6" data-name="Path 6" d="M44.966,15.308c-.01-.055-.019-.109-.034-.162-.009-.032-.02-.062-.03-.094-.015-.047-.031-.095-.05-.141s-.028-.063-.043-.094-.042-.087-.066-.128-.036-.06-.055-.09-.053-.079-.082-.118-.043-.056-.066-.083-.063-.071-.1-.1-.051-.051-.078-.076-.072-.062-.11-.092-.058-.045-.088-.066c-.011-.008-.021-.017-.032-.024L23.572.325a1.932,1.932,0,0,0-2.145,0L.861,14.036c-.012.007-.021.016-.032.024-.03.021-.059.044-.088.066s-.075.06-.11.091-.052.05-.077.076-.065.068-.1.1-.045.055-.066.085-.056.077-.082.118-.038.059-.055.09-.045.085-.065.127-.03.062-.043.094S.112,15,.1,15.051c-.01.032-.021.062-.03.091-.014.053-.024.107-.034.162-.005.028-.012.055-.016.084A1.945,1.945,0,0,0,0,15.641V29.355a1.753,1.753,0,0,0,.018.253c0,.03.012.055.018.084a1.132,1.132,0,0,0,.036.164c.008.03.018.061.03.094.015.048.03.1.048.141s.03.061.042.091.042.085.067.129.036.061.055.088a.974.974,0,0,0,.085.115c.021.03.042.055.067.084a.988.988,0,0,0,.1.1.471.471,0,0,0,.079.073l.109.092c.029.024.061.042.085.066.012.006.018.018.03.024L21.427,44.674A1.9,1.9,0,0,0,22.5,45a1.944,1.944,0,0,0,1.073-.325L44.139,30.963c.012-.007.021-.016.032-.024.03-.021.059-.044.088-.066s.075-.061.11-.092.052-.05.078-.075.065-.068.1-.1.045-.055.066-.084.056-.078.082-.118.038-.059.055-.088.045-.085.066-.129.03-.062.043-.093c.019-.047.035-.094.05-.141.01-.032.021-.062.03-.094.014-.053.024-.108.034-.162,0-.028.012-.055.015-.084A1.945,1.945,0,0,0,45,29.356V15.645a2.057,2.057,0,0,0-.017-.253c0-.03-.014-.054-.02-.084ZM22.5,27.074,15.661,22.5,22.5,17.925,29.339,22.5,22.5,27.074ZM20.566,14.566l-8.383,5.607L5.416,15.647l15.15-10.1v9.02ZM8.705,22.5,3.868,25.735V19.264L8.705,22.5Zm3.478,2.328,8.383,5.607v9.02l-15.15-10.1,6.767-4.526Zm12.25,5.605,8.383-5.607,6.768,4.526-15.151,10.1v-9.02ZM36.294,22.5l4.838-3.236v6.471L36.294,22.5Zm-3.478-2.327-8.383-5.607V5.547l15.151,10.1-6.768,4.527Z" transform="translate(0)" fill="#fff"/>
    </g>
  </g>
</svg>
