<svg xmlns="http://www.w3.org/2000/svg" xmlns:xlink="http://www.w3.org/1999/xlink" width="75" height="75" viewBox="0 0 75 75">
  <defs>
    <clipPath id="clip-docker">
      <rect width="75" height="75"/>
    </clipPath>
  </defs>
  <g id="docker" clip-path="url(#clip-docker)">
    <path id="twitter" d="M66.964,32H8.036A8.038,8.038,0,0,0,0,40.036V98.964A8.038,8.038,0,0,0,8.036,107H66.964A8.038,8.038,0,0,0,75,98.964V40.036A8.038,8.038,0,0,0,66.964,32Z" transform="translate(0 -32)" fill="#0091e2"/>
    <path id="docker-svgrepo-com" d="M9.04,30.566a2.437,2.437,0,0,1-2.446-2.322A2.366,2.366,0,0,1,9.04,25.915,2.373,2.373,0,0,1,11.5,28.244a2.443,2.443,0,0,1-2.454,2.322Zm30.028-12.68a7.007,7.007,0,0,0-2.924-4.535l-.592-.468-.477.578a6.274,6.274,0,0,0-1.18,4.3,6.043,6.043,0,0,0,1.041,2.916c-.484.249-1.069.468-1.525.71a9.939,9.939,0,0,1-3.149.468H.183l-.118.688a13.2,13.2,0,0,0,1.056,6.644L1.582,30v.108C4.4,34.77,9.4,36.866,14.856,36.866c10.491,0,19.091-4.535,23.17-14.314,2.674.117,5.372-.579,6.637-3.144L45,18.83l-.557-.353a7.085,7.085,0,0,0-5.346-.585l-.038.007ZM24.05,16.026H19.494v4.54H24.05Zm0-5.706H19.494v4.54H24.05Zm0-5.824H19.494V9.037H24.05Zm5.567,11.531H25.089v4.54h4.542v-4.54Zm-16.87,0H8.22v4.54h4.542v-4.54Zm5.677,0h-4.5v4.54h4.528v-4.54Zm-11.3,0h-4.5v4.54H7.179v-4.54Zm11.3-5.706h-4.5v4.54h4.528V10.325Zm-5.708,0H8.227v4.54h4.528V10.325l-.03-.006Z" transform="translate(15 16.505)" fill="#fff"/>
  </g>
</svg>
