<svg xmlns="http://www.w3.org/2000/svg" xmlns:xlink="http://www.w3.org/1999/xlink" width="75" height="75" viewBox="0 0 75 75">
  <defs>
    <clipPath id="clip-express">
      <rect width="75" height="75"/>
    </clipPath>
  </defs>
  <g id="express" clip-path="url(#clip-express)">
    <path id="twitter" d="M66.964,32H8.036A8.038,8.038,0,0,0,0,40.036V98.964A8.038,8.038,0,0,0,8.036,107H66.964A8.038,8.038,0,0,0,75,98.964V40.036A8.038,8.038,0,0,0,66.964,32Z" transform="translate(0 -32)" fill="#353535"/>
    <path id="express-svgrepo-com" d="M37,25.929a2.357,2.357,0,0,1-2.922-1.11l-5.319-7.355-.771-1.028-6.171,8.393A2.26,2.26,0,0,1,19.04,25.92l7.952-10.669L19.6,5.614a2.459,2.459,0,0,1,2.929,1.027l5.513,7.446,5.544-7.416a2.212,2.212,0,0,1,2.757-1.03l-2.871,3.81-3.888,5.061a1.027,1.027,0,0,0,0,1.532l7.406,9.885ZM0,15.118l.648-3.2C2.43,5.594,9.682,2.962,14.671,6.878c2.922,2.3,3.651,5.546,3.507,9.209H1.721c-.267,6.541,4.454,10.491,10.49,8.473a6.287,6.287,0,0,0,3.981-4.434c.319-1.027.845-1.2,1.81-.907a8.351,8.351,0,0,1-3.991,6.1A9.67,9.67,0,0,1,2.746,23.882,10.137,10.137,0,0,1,.217,17.934a4.128,4.128,0,0,0-.207-1.027Q0,16.013,0,15.12Zm1.738-.441H16.624c-.093-4.742-3.085-8.106-7.076-8.137C5.1,6.479,1.926,9.769,1.73,14.656Z" transform="translate(28 38.963)" fill="#fff"/>
  </g>
</svg>
