<svg xmlns="http://www.w3.org/2000/svg" xmlns:xlink="http://www.w3.org/1999/xlink" width="75" height="75" viewBox="0 0 75 75">
  <defs>
    <clipPath id="clip-node">
      <rect width="75" height="75"/>
    </clipPath>
  </defs>
  <g id="node" clip-path="url(#clip-node)">
    <path id="twitter" d="M66.964,32H8.036A8.038,8.038,0,0,0,0,40.036V98.964A8.038,8.038,0,0,0,8.036,107H66.964A8.038,8.038,0,0,0,75,98.964V40.036A8.038,8.038,0,0,0,66.964,32Z" transform="translate(0 -32)" fill="#44883e"/>
    <g id="logo-nodejs-svgrepo-com" transform="translate(-46 -16.993)">
      <path id="Path_2" data-name="Path 2" d="M100.721,41.84l-15.6-9.359a3.715,3.715,0,0,0-3.68,0L65.831,41.839A3.835,3.835,0,0,0,64,45.129V63.82a3.841,3.841,0,0,0,1.831,3.293l4.092,2.444.023.013a6.872,6.872,0,0,0,3.774,1.057c3.227,0,5.232-2.088,5.232-5.451V47.054a.854.854,0,0,0-.845-.861H75.859a.854.854,0,0,0-.845.861V65.176a1.506,1.506,0,0,1-.688,1.312,2.5,2.5,0,0,1-2.424-.216l-3.922-2.36a.11.11,0,0,1-.048-.092V45.393a.133.133,0,0,1,.059-.106L83.237,35.95a.082.082,0,0,1,.073,0l15.253,9.337a.134.134,0,0,1,.055.11V63.82a.129.129,0,0,1-.045.1l-15.266,9.1a.122.122,0,0,1-.08,0l-3.9-2.315a.783.783,0,0,0-.786-.041l-.034.02a10.976,10.976,0,0,1-2.363,1.167c-.163.059-.545.2-.578.579s.33.648.654.835l5.211,3.2a3.581,3.581,0,0,0,1.837.509h.058a3.6,3.6,0,0,0,1.79-.509l15.6-9.35a3.852,3.852,0,0,0,1.831-3.3V45.129A3.836,3.836,0,0,0,100.721,41.84Z" fill="#fff"/>
      <path id="Path_3" data-name="Path 3" d="M232.42,180.924c-3.744,0-4.542-1.046-4.779-2.735a.846.846,0,0,0-.825-.735h-1.988a.847.847,0,0,0-.829.861c0,1.464.514,6.242,8.425,6.242h0a9.581,9.581,0,0,0,5.886-1.656,5.53,5.53,0,0,0,2.154-4.538c0-3.77-2.46-4.8-7.3-5.477-4.924-.685-4.924-1.033-4.924-1.8,0-.549,0-1.835,3.56-1.835,2.533,0,3.889.32,4.323,2.008a.838.838,0,0,0,.809.67h1.995a.827.827,0,0,0,.618-.287.9.9,0,0,0,.213-.647c-.258-3.569-2.867-5.379-7.956-5.379-4.624,0-7.384,2.083-7.384,5.572,0,3.825,2.86,4.906,7.157,5.354,5.02.519,5.02,1.276,5.02,1.945C236.595,179.533,236.162,180.924,232.42,180.924Z" transform="translate(-143.936 -120.211)" fill="#fff"/>
    </g>
  </g>
</svg>
