<svg xmlns="http://www.w3.org/2000/svg" xmlns:xlink="http://www.w3.org/1999/xlink" width="75" height="75" viewBox="0 0 75 75">
  <defs>
    <clipPath id="clip-tailwindcss">
      <rect width="75" height="75"/>
    </clipPath>
  </defs>
  <g id="tailwindcss" clip-path="url(#clip-tailwindcss)">
    <path id="twitter" d="M66.964,32H8.036A8.038,8.038,0,0,0,0,40.036V98.964A8.038,8.038,0,0,0,8.036,107H66.964A8.038,8.038,0,0,0,75,98.964V40.036A8.038,8.038,0,0,0,66.964,32Z" transform="translate(0 -32)" fill="#1db6d5"/>
    <g id="Tailwind_CSS_Logo" transform="translate(-25.5 -202.318)">
      <path id="Path_4" data-name="Path 4" d="M279.821,226.327c-7.925.252-10.281,5.913-10.821,8.98a7.76,7.76,0,0,1,6.183-3.631c3.8,0,6.7,4.245,8.465,5.57a13.38,13.38,0,0,0,12.121,2.012c4.515-1.374,6.609-6.167,7.067-8.441-2.184,2.969-5.5,4.752-9.594,2.65C290.42,232.019,288.31,226.057,279.821,226.327Z" transform="translate(-217.287)" fill="#fff"/>
      <path id="Path_5" data-name="Path 5" d="M51.321,500.827c-7.925.252-10.281,5.913-10.821,8.98a7.76,7.76,0,0,1,6.183-3.631c3.8,0,6.7,4.245,8.465,5.57a13.38,13.38,0,0,0,12.121,2.012c4.515-1.374,6.609-6.167,7.067-8.441-2.184,2.969-5.5,4.752-9.594,2.65C61.92,506.52,59.81,500.557,51.321,500.827Z" transform="translate(0 -261.03)" fill="#fff"/>
    </g>
  </g>
</svg>
