<svg xmlns="http://www.w3.org/2000/svg" xmlns:xlink="http://www.w3.org/1999/xlink" width="75" height="75" viewBox="0 0 75 75">
  <defs>
    <clipPath id="clip-twitch">
      <rect width="75" height="75"/>
    </clipPath>
  </defs>
  <g id="twitch" clip-path="url(#clip-twitch)">
    <rect id="Rectangle_1" data-name="Rectangle 1" width="65" height="65" transform="translate(5 5)" fill="#fff"/>
    <path id="twitter" d="M66.964,32H8.036A8.038,8.038,0,0,0,0,40.036V98.964A8.038,8.038,0,0,0,8.036,107H66.964A8.038,8.038,0,0,0,75,98.964V40.036A8.038,8.038,0,0,0,66.964,32Z" transform="translate(0 -32)" fill="#9146ff"/>
    <path id="twitch-2" data-name="twitch" d="M55.978,8.932H52.644V18.4h3.335Zm-9.165-.041H43.479v9.474h3.335ZM32.642,0,24.31,7.892V36.305h10V44.2l8.333-7.892H49.31l15-14.207V0ZM60.976,20.523,54.31,26.835H47.643L41.808,32.36V26.835h-7.5V3.158H60.976Z" transform="translate(-6.31 15)" fill="#fff"/>
  </g>
</svg>
