<svg xmlns="http://www.w3.org/2000/svg" xmlns:xlink="http://www.w3.org/1999/xlink" width="75" height="75" viewBox="0 0 75 75">
  <defs>
    <clipPath id="clip-twitter">
      <rect width="75" height="75"/>
    </clipPath>
  </defs>
  <g id="twitter" clip-path="url(#clip-twitter)">
    <rect id="Rectangle_1" data-name="Rectangle 1" width="65" height="65" transform="translate(5 5)" fill="#fff"/>
    <path id="twitter-2" data-name="twitter" d="M66.964,32H8.036A8.038,8.038,0,0,0,0,40.036V98.964A8.038,8.038,0,0,0,8.036,107H66.964A8.038,8.038,0,0,0,75,98.964V40.036A8.038,8.038,0,0,0,66.964,32ZM58.778,58.585c.033.469.033.954.033,1.423,0,14.515-11.049,31.239-31.239,31.239a31.1,31.1,0,0,1-16.858-4.922,23.131,23.131,0,0,0,2.645.134,22.014,22.014,0,0,0,13.627-4.687,10.994,10.994,0,0,1-10.262-7.617,11.833,11.833,0,0,0,4.955-.2,10.981,10.981,0,0,1-8.789-10.781v-.134a10.972,10.972,0,0,0,4.955,1.39,10.957,10.957,0,0,1-4.888-9.141,10.843,10.843,0,0,1,1.49-5.541A31.176,31.176,0,0,0,37.081,61.23,11,11,0,0,1,55.815,51.2a21.515,21.515,0,0,0,6.964-2.645A10.951,10.951,0,0,1,57.958,54.6a21.85,21.85,0,0,0,6.328-1.708A23.111,23.111,0,0,1,58.778,58.585Z" transform="translate(0 -32)" fill="#1da1f2"/>
  </g>
</svg>
