<svg xmlns="http://www.w3.org/2000/svg" xmlns:xlink="http://www.w3.org/1999/xlink" width="75" height="75" viewBox="0 0 75 75">
  <defs>
    <clipPath id="clip-typescript">
      <rect width="75" height="75"/>
    </clipPath>
  </defs>
  <g id="typescript" clip-path="url(#clip-typescript)">
    <path id="twitter" d="M66.964,32H8.036A8.038,8.038,0,0,0,0,40.036V98.964A8.038,8.038,0,0,0,8.036,107H66.964A8.038,8.038,0,0,0,75,98.964V40.036A8.038,8.038,0,0,0,66.964,32Z" transform="translate(0 -32)" fill="#3178c6"/>
    <g id="Typescript_logo_2020" transform="translate(-24.161 -11.343)">
      <path id="Path_1" data-name="Path 1" d="M146.2,261.469v7.086a15.216,15.216,0,0,0,4.11,1.332,26.8,26.8,0,0,0,4.96.439,23.154,23.154,0,0,0,4.818-.482,12.227,12.227,0,0,0,3.968-1.559,7.007,7.007,0,0,0,2.693-2.976,10.714,10.714,0,0,0,1.006-4.535,9.346,9.346,0,0,0-.581-3.4,6.677,6.677,0,0,0-1.7-2.551,11.255,11.255,0,0,0-2.551-1.984,31.632,31.632,0,0,0-3.4-1.7c-.935-.383-1.7-.751-2.551-1.12a11.061,11.061,0,0,1-1.842-1.105,5.059,5.059,0,0,1-1.2-1.19,2.489,2.489,0,0,1-.425-1.417,2.375,2.375,0,0,1,.383-1.318,3.316,3.316,0,0,1,1.063-1.006,5.534,5.534,0,0,1,1.7-.652,9.893,9.893,0,0,1,2.267-.227,13.086,13.086,0,0,1,1.842.133,15.2,15.2,0,0,1,1.984.411,15.743,15.743,0,0,1,1.984.694,9.362,9.362,0,0,1,1.7.978v-6.661a17.51,17.51,0,0,0-3.543-.921,28.416,28.416,0,0,0-4.393-.3,21.363,21.363,0,0,0-4.818.539,11.216,11.216,0,0,0-3.968,1.7,8.16,8.16,0,0,0-2.693,2.976,8.425,8.425,0,0,0-.992,4.252,7.988,7.988,0,0,0,1.842,5.385,14.76,14.76,0,0,0,5.527,3.826c.978.4,1.842.794,2.693,1.176a12.091,12.091,0,0,1,2.126,1.19,5.192,5.192,0,0,1,1.417,1.346,2.8,2.8,0,0,1,.539,1.7,2.635,2.635,0,0,1-.326,1.275,2.789,2.789,0,0,1-1.006,1.02,5.748,5.748,0,0,1-1.7.68,10.36,10.36,0,0,1-2.409.241,12.846,12.846,0,0,1-4.535-.808,13.467,13.467,0,0,1-4.251-2.409Zm-11.9-17.431h9.07v-5.81H118v5.81h9.07v25.934H134.3Z" transform="translate(-78.595 -193.984)" fill="#fff" fill-rule="evenodd"/>
    </g>
  </g>
</svg>
