<svg xmlns="http://www.w3.org/2000/svg" xmlns:xlink="http://www.w3.org/1999/xlink" width="75" height="75" viewBox="0 0 75 75">
  <defs>
    <clipPath id="clip-website">
      <rect width="75" height="75"/>
    </clipPath>
  </defs>
  <g id="website" clip-path="url(#clip-website)">
    <rect id="Rectangle_1" data-name="Rectangle 1" width="65" height="65" transform="translate(5 5)" fill="#fff"/>
    <path id="twitter" d="M66.964,32H8.036A8.038,8.038,0,0,0,0,40.036V98.964A8.038,8.038,0,0,0,8.036,107H66.964A8.038,8.038,0,0,0,75,98.964V40.036A8.038,8.038,0,0,0,66.964,32Z" transform="translate(0 -32)" fill="#3e3e3e"/>
    <path id="website-2" data-name="website" d="M30.535,21.79C29.22,13.689,26.116,8,22.5,8s-6.715,5.689-8.031,13.79ZM13.793,30.5a56.855,56.855,0,0,0,.3,5.806H30.907a56.855,56.855,0,0,0,.3-5.806,56.856,56.856,0,0,0-.3-5.806H14.093A56.855,56.855,0,0,0,13.793,30.5Zm29.465-8.71A22.55,22.55,0,0,0,28.92,8.944c2.214,3.067,3.739,7.684,4.537,12.847ZM16.08,8.944A22.535,22.535,0,0,0,1.751,21.79h9.8C12.341,16.628,13.866,12.01,16.08,8.944Zm28.149,15.75H33.82c.191,1.905.3,3.856.3,5.806s-.109,3.9-.3,5.806h10.4A22.3,22.3,0,0,0,45,30.5,22.691,22.691,0,0,0,44.229,24.694ZM10.889,30.5c0-1.951.109-3.9.3-5.806H.78a21.991,21.991,0,0,0,0,11.613h10.4C11,34.4,10.889,32.451,10.889,30.5Zm3.584,8.71C15.789,47.311,18.893,53,22.5,53s6.715-5.689,8.031-13.79ZM28.929,52.056A22.572,22.572,0,0,0,43.267,39.21h-9.8C32.668,44.372,31.143,48.99,28.929,52.056ZM1.751,39.21A22.551,22.551,0,0,0,16.089,52.056c-2.214-3.067-3.739-7.684-4.537-12.847h-9.8Z" transform="translate(15 7)" fill="#fff"/>
  </g>
</svg>
